# xmcd CD database file
#
# Track frame offsets:
#	150
#	21276
#	47078
#	82253
#	111519
#	139164
#	170749
#	195287
#	220930
#
# Disc length: 3236 seconds
#
# Revision: 0
# Processed by: cddbd v1.4PL0 Copyright (c) Steve Scherf et al.
# Submitted via: CDex 1.50
#
DISCID=840ca209
DTITLE=Divers - Couleurs Jazz 2
DYEAR=1985
DGENRE=Jazz
TTITLE0=Charles Loos and Steve Houben, Mauranne - Enfance
TTITLE1=Philip Catherine - Les enfants
TTITLE2=Eric Legnini - Prima vista
TTITLE3=Serge Lazarevitch - Wher are you
TTITLE4=Philippe Aerts trio - Cat walk
TTITLE5=Diederick Wisses - Home niews
TTITLE6=L'Ame des poètes - Le Sud
TTITLE7=Ivan Paduart - Horlogerie
TTITLE8=Nathalie Loriers Lonely voices
EXTD=YEAR: 1985
EXTT0=
EXTT1=
EXTT2=
EXTT3=
EXTT4=
EXTT5=
EXTT6=
EXTT7=
EXTT8=
PLAYORDER=
